{"title":"Dumb.And.Dumber.To.2014.HDCAM.x264-LiGAS","uid":11533526,"size":927688081,"categoryP":"video","categoryS":"movies","magnet":"?xt=urn:btih:aac4b547874509f7e0069b40d8fa05106390c591&amp;dn=Dumb.And.Dumber.To.2014.HDCAM.x264-LiGAS&amp;tr=udp%3A%2F%2Ftracker.openbittorrent.com%3A80&amp;tr=udp%3A%2F%2Fopen.demonii.com%3A1337&amp;tr=udp%3A%2F%2Ftracker.coppersurfer.tk%3A6969&amp;tr=udp%3A%2F%2Fexodus.desync.com%3A6969","seeders":5,"leechers":0,"uploader":"TvTeam","files":3,"time":1416601582,"description":" &lt;a href=&quot;http://www.torrenting.com&quot; rel=&quot;nofollow&quot; target=&quot;_NEW&quot;&gt;http://www.torrenting.com&lt;/a&gt;\n\nSign up is OPEN - for time being. Come and have fun.\n\n------------------------------------------------------------------ __       __    _______      ___           _______.\n|  |     |  |  /  _____|    /            /       |\n|  |     |  | |  |  __     /  ^         |   (----`\n|  |     |  | |  | |_ |   /  /_                \n|  `----.|  | |  |__| |  /  _____    .----)   |   \n|_______||__|  ______| /__/     __ |_______/  \n\n\nGeneral\nComplete name                            : Dumb.And.Dumber.To.2014.HDCAM.x264-LiGAS.mp4\nFormat                                   : MPEG-4\nFormat profile                           : Base Media\nCodec ID                                 : isom\nFile size                                : 885 MiB\nDuration                                 : 1h 42mn\nOverall bit rate                         : 1 211 Kbps\nWriting application                      : Lavf53.31.100\n\nVideo\nID                                       : 1\nFormat                                   : AVC\nFormat/Info                              : Advanced Video Codec\nFormat profile                           : &lt;a class=&quot;__cf_email__&quot; href=&quot;/cdn-cgi/l/email-protection&quot; data-cfemail=&quot;0941606e6149453a2738&quot;&gt;[email&amp;#160;protected]&lt;/a&gt;&lt;script cf-hash='f9e31' type=&quot;text/javascript&quot;&gt;\n/* &lt;![CDATA[ */!function(){try{var t=&quot;currentScript&quot;in document?document.currentScript:function(){for(var t=document.getElementsByTagName(&quot;script&quot;),e=t.length;e--;)if(t[e].getAttribute(&quot;cf-hash&quot;))return t[e]}();if(t&amp;&amp;t.previousSibling){var e,r,n,i,c=t.previousSibling,a=c.getAttribute(&quot;data-cfemail&quot;);if(a){for(e=&quot;&quot;,r=parseInt(a.substr(0,2),16),n=2;a.length-n;n+=2)i=parseInt(a.substr(n,2),16)^r,e+=String.fromCharCode(i);e=document.createTextNode(e),c.parentNode.replaceChild(e,c)}}}catch(u){}}();/* ]]&gt; */&lt;/script&gt;\nFormat settings, CABAC                   : Yes\nFormat settings, ReFrames                : 5 frames\nFormat settings, GOP                     : M=2, N=15\nCodec ID                                 : avc1\nCodec ID/Info                            : Advanced Video Coding\nDuration                                 : 1h 42mn\nBit rate                                 : 1 070 Kbps\nWidth                                    : 840 pixels\nHeight                                   : 360 pixels\nDisplay aspect ratio                     : 2.35:1\nFrame rate mode                          : Variable\nFrame rate                               : 23.976 fps\nMinimum frame rate                       : 23.952 fps\nMaximum frame rate                       : 24.000 fps\nColor space                              : YUV\nChroma subsampling                       : 4:2:0\nBit depth                                : 8 bits\nScan type                                : Progressive\nBits/(Pixel*Frame)                       : 0.148\nStream size                              : 782 MiB (88%)\n\nAudio\nID                                       : 2\nFormat                                   : AAC\nFormat/Info                              : Advanced Audio Codec\nFormat profile                           : LC\nCodec ID                                 : 40\nDuration                                 : 1h 42mn\nDuration_LastFrame                       : -21ms\nBit rate mode                            : Constant\nBit rate                                 : 135 Kbps\nChannel(s)                               : 2 channels\nChannel positions                        : Front: L R\nSampling rate                            : 48.0 KHz\nCompression mode                         : Lossy\nStream size                              : 98.6 MiB (11%)","torrent":{"xt":"urn:btih:aac4b547874509f7e0069b40d8fa05106390c591","amp;dn":"Dumb.And.Dumber.To.2014.HDCAM.x264-LiGAS","amp;tr":["udp%3A%2F%2Ftracker.openbittorrent.com%3A80","udp%3A%2F%2Fopen.demonii.com%3A1337","udp%3A%2F%2Ftracker.coppersurfer.tk%3A6969","udp%3A%2F%2Fexodus.desync.com%3A6969"],"infoHash":"aac4b547874509f7e0069b40d8fa05106390c591","infoHashBuffer":{"type":"Buffer","data":[170,196,181,71,135,69,9,247,224,6,155,64,216,250,5,16,99,144,197,145]},"announce":[],"urlList":[]}}